<svg xmlns="http://www.w3.org/2000/svg" width="512pt" height="512pt" viewBox="0 0 512 512" id="vitruvian-man"><path d="m436.808594 75.191406c-48.480469-48.492187-112.699219-75.191406-180.808594-75.191406s-132.328125 26.699219-180.808594 75.191406c-48.492187 48.480469-75.191406 112.699219-75.191406 180.808594s26.699219 132.328125 75.191406 180.808594c48.480469 48.492187 112.699219 75.191406 180.808594 75.191406s132.328125-26.699219 180.808594-75.191406c48.492187-48.480469 75.191406-112.699219 75.191406-180.808594s-26.699219-132.328125-75.191406-180.808594zm19.269531 75.808594h-61.4375l37.019531-37.019531c9.289063 11.46875 17.480469 23.859375 24.417969 37.019531zm-44.808594-59.058594-59.058593 59.058594h-42.421876l78.28125-78.28125c8.160157 5.902344 15.910157 12.3125 23.199219 19.222656zm-155.269531-61.941406c38.261719 0 74.320312 9.570312 105.941406 26.421875l-48.222656 48.226563c-7.140625-25.160157-30.296875-43.648438-57.71875-43.648438s-50.578125 18.488281-57.71875 43.648438l-48.222656-48.226563c31.621094-16.851563 67.679687-26.421875 105.941406-26.421875zm30 91c0 16.53125-13.480469 30-30 30s-30-13.46875-30-30c0-8.269531 3.371094-15.769531 8.800781-21.210938 5.429688-5.429687 12.929688-8.789062 21.199219-8.789062 8.25 0 15.730469 3.351562 21.160156 8.761719 5.460938 5.429687 8.839844 12.949219 8.839844 21.238281zm-162.070312-48.28125 78.28125 78.28125h-42.421876l-59.058593-59.058594c7.289062-6.910156 15.039062-13.320312 23.199219-19.222656zm-43.589844 41.261719 37.019531 37.019531h-61.4375c6.9375-13.160156 15.128906-25.550781 24.417969-37.019531zm100.660156 355.210937c-17.679688-6.242187-34.359375-14.621094-49.730469-24.820312l49.730469-49.742188zm0-116.980468-73.769531 73.769531c-7.53125-6.601563-14.609375-13.679688-21.210938-21.210938l94.980469-94.980469zm0-84.851563-113.371094 113.371094c-23.757812-35.769531-37.628906-78.660157-37.628906-124.730469 0-5.039062.179688-10.039062.511719-15h150.488281zm120 210.128906c-9.789062 1.992188-19.800781 3.332031-30 4v-180.488281h-30v180.488281c-10.199219-.667969-20.210938-2.007812-30-4v-266.488281h-176.488281c2.078125-10.269531 4.867187-20.28125 8.296875-30h426.382812c3.429688 9.71875 6.21875 19.730469 8.296875 30h-176.488281zm30-8.296875v-74.5625l49.730469 49.742188c-15.371094 10.199218-32.050781 18.578125-49.730469 24.820312zm73.769531-43.210937-73.769531-73.769531v-42.421876l94.980469 94.980469c-6.601563 7.53125-13.679688 14.609375-21.210938 21.210938zm-73.769531-158.621094v-26.359375h150.488281c.332031 4.960938.511719 9.960938.511719 15 0 46.070312-13.871094 88.960938-37.628906 124.730469zm0 0"></path></svg>